<svg xmlns="http://www.w3.org/2000/svg" viewBox="0 0 640 400" width="640" height="400">
  <defs>
    <linearGradient id="g" x1="0" y1="0" x2="1" y2="1">
      <stop offset="0" stop-color="#8b5cf6"/>
      <stop offset="1" stop-color="#3b82f6"/>
    </linearGradient>
    <radialGradient id="glow" cx="0.28" cy="0.22" r="0.85">
      <stop offset="0" stop-color="#8b5cf6" stop-opacity="0.32"/>
      <stop offset="1" stop-color="#8b5cf6" stop-opacity="0"/>
    </radialGradient>
  </defs>
  <rect width="640" height="400" fill="#0b0c0e"/>
  <rect width="640" height="400" fill="url(#glow)"/>
  <g stroke="#ffffff" stroke-opacity="0.035" stroke-width="1"><line x1="0" y1="0" x2="0" y2="400"/><line x1="40" y1="0" x2="40" y2="400"/><line x1="80" y1="0" x2="80" y2="400"/><line x1="120" y1="0" x2="120" y2="400"/><line x1="160" y1="0" x2="160" y2="400"/><line x1="200" y1="0" x2="200" y2="400"/><line x1="240" y1="0" x2="240" y2="400"/><line x1="280" y1="0" x2="280" y2="400"/><line x1="320" y1="0" x2="320" y2="400"/><line x1="360" y1="0" x2="360" y2="400"/><line x1="400" y1="0" x2="400" y2="400"/><line x1="440" y1="0" x2="440" y2="400"/><line x1="480" y1="0" x2="480" y2="400"/><line x1="520" y1="0" x2="520" y2="400"/><line x1="560" y1="0" x2="560" y2="400"/><line x1="600" y1="0" x2="600" y2="400"/><line x1="640" y1="0" x2="640" y2="400"/><line x1="0" y1="0" x2="640" y2="0"/><line x1="0" y1="40" x2="640" y2="40"/><line x1="0" y1="80" x2="640" y2="80"/><line x1="0" y1="120" x2="640" y2="120"/><line x1="0" y1="160" x2="640" y2="160"/><line x1="0" y1="200" x2="640" y2="200"/><line x1="0" y1="240" x2="640" y2="240"/><line x1="0" y1="280" x2="640" y2="280"/><line x1="0" y1="320" x2="640" y2="320"/><line x1="0" y1="360" x2="640" y2="360"/><line x1="0" y1="400" x2="640" y2="400"/></g>
  <line x1="110" y1="300" x2="180" y2="260" stroke="#3b82f6" stroke-opacity="0.18" stroke-width="1"/><line x1="180" y1="260" x2="250" y2="310" stroke="#3b82f6" stroke-opacity="0.18" stroke-width="1"/><line x1="250" y1="310" x2="520" y2="90" stroke="#3b82f6" stroke-opacity="0.18" stroke-width="1"/><line x1="520" y1="90" x2="470" y2="140" stroke="#3b82f6" stroke-opacity="0.18" stroke-width="1"/><line x1="470" y1="140" x2="560" y2="200" stroke="#3b82f6" stroke-opacity="0.18" stroke-width="1"/><line x1="560" y1="200" x2="420" y2="330" stroke="#3b82f6" stroke-opacity="0.18" stroke-width="1"/><line x1="420" y1="330" x2="600" y2="300" stroke="#3b82f6" stroke-opacity="0.18" stroke-width="1"/><circle cx="110" cy="300" r="2.4" fill="#3b82f6" fill-opacity="0.5"/><circle cx="180" cy="260" r="2.4" fill="#3b82f6" fill-opacity="0.5"/><circle cx="250" cy="310" r="2.4" fill="#3b82f6" fill-opacity="0.5"/><circle cx="520" cy="90" r="2.4" fill="#3b82f6" fill-opacity="0.5"/><circle cx="470" cy="140" r="2.4" fill="#3b82f6" fill-opacity="0.5"/><circle cx="560" cy="200" r="2.4" fill="#3b82f6" fill-opacity="0.5"/><circle cx="420" cy="330" r="2.4" fill="#3b82f6" fill-opacity="0.5"/><circle cx="600" cy="300" r="2.4" fill="#3b82f6" fill-opacity="0.5"/>
  <text x="44" y="200" font-family="'JetBrains Mono',ui-monospace,monospace" font-size="150" font-weight="700" fill="url(#g)" opacity="0.92">λ</text>
  <text x="46" y="318" font-family="'JetBrains Mono',ui-monospace,monospace" font-size="26" font-weight="600" fill="#f6f7f8" letter-spacing="-0.5">Labo Ingenieur LLM</text>
  <text x="46" y="348" font-family="'JetBrains Mono',ui-monospace,monospace" font-size="14" fill="#ffffff" fill-opacity="0.45" letter-spacing="0.5">FastAPI · Next.js</text>
  <rect x="0.5" y="0.5" width="639" height="399" fill="none" stroke="#ffffff" stroke-opacity="0.08"/>
</svg>